<svg xmlns="http://www.w3.org/2000/svg" width="320.243" height="79.356" viewBox="0 0 320.243 79.356">
  <g id="Group_3" data-name="Group 3" transform="translate(-190.304 -98.588)">
    <path id="Path_1" data-name="Path 1" d="M220.7,113.666a17.043,17.043,0,0,0-5.6-3.761,18.83,18.83,0,0,0-7.438-1.389,18.453,18.453,0,0,0-7.39,1.389,16.078,16.078,0,0,0-5.457,3.761,15.809,15.809,0,0,0-3.374,5.61,20.247,20.247,0,0,0-1.138,6.789V137.77a17.739,17.739,0,0,0,1.287,6.748,16.533,16.533,0,0,0,3.673,5.553,16.858,16.858,0,0,0,5.7,3.722,19.8,19.8,0,0,0,7.487,1.34,19.206,19.206,0,0,0,9.226-2.083,18.863,18.863,0,0,0,5.853-4.561,3.588,3.588,0,0,0,.843-2.082,2.588,2.588,0,0,0-.843-1.986l-1.885-1.687a2.68,2.68,0,0,0-4.165.1,16.044,16.044,0,0,1-3.177,2.526,10.763,10.763,0,0,1-5.852,1.34q-4.758,0-6.99-2.575a9.351,9.351,0,0,1-2.232-6.352v-1.776a.88.88,0,0,1,.988-1h22.32a2.738,2.738,0,0,0,2.974-2.971v-5.957a18.728,18.728,0,0,0-1.239-6.789A16.254,16.254,0,0,0,220.7,113.666Zm-4.116,12.9a.876.876,0,0,1-.989.993H200.22a.875.875,0,0,1-.988-.993v-.5a10.9,10.9,0,0,1,1.884-6.442c1.256-1.792,3.435-2.679,6.547-2.679,3.172,0,5.453.887,6.841,2.679a10.193,10.193,0,0,1,2.083,6.442Z" fill="#1e4732"/>
    <path id="Path_2" data-name="Path 2" d="M266.182,109.5H251.406a18.966,18.966,0,0,0-13.642,5.5,17.744,17.744,0,0,0-3.915,6.006,19.511,19.511,0,0,0-1.389,7.337v8.831a21.536,21.536,0,0,0,1.187,7.289,17.529,17.529,0,0,0,3.273,5.7,14.245,14.245,0,0,0,4.961,3.673,15.267,15.267,0,0,0,6.348,1.292,16.479,16.479,0,0,0,6.6-1.187,9.865,9.865,0,0,0,4.117-3.084.746.746,0,0,1,.843-.339.679.679,0,0,1,.448.743,2.926,2.926,0,0,0,.792,1.986,2.784,2.784,0,0,0,2.183.888h2.975a2.744,2.744,0,0,0,2.978-2.971V112.48a2.745,2.745,0,0,0-2.978-2.979Zm-5.95,26.186a12.7,12.7,0,0,1-.645,4.02,11.024,11.024,0,0,1-1.934,3.519,9.308,9.308,0,0,1-3.224,2.535,10.407,10.407,0,0,1-4.614.936,8.1,8.1,0,0,1-6.2-2.373,8.653,8.653,0,0,1-2.232-6.151v-9.824a10.678,10.678,0,0,1,2.728-7.337,9.742,9.742,0,0,1,7.689-3.076h7.439a.877.877,0,0,1,.992.993Z" fill="#1e4732"/>
    <path id="Path_3" data-name="Path 3" d="M304.371,145.712H287.508c-.593,0-.977-.153-1.142-.452s-.081-.678.25-1.138l17.856-24.7a16.628,16.628,0,0,0,1.436-2.333,4.907,4.907,0,0,0,.444-2.131V112.48a2.739,2.739,0,0,0-2.974-2.979H278.084a2.744,2.744,0,0,0-2.975,2.979v2.478a2.754,2.754,0,0,0,2.975,2.978h15.079a.915.915,0,0,1,.892.4.8.8,0,0,1-.2.888l-18.053,25a7.538,7.538,0,0,0-1.688,4.464v2.486a2.745,2.745,0,0,0,2.979,2.971h27.276a2.738,2.738,0,0,0,2.974-2.971v-2.486a2.739,2.739,0,0,0-2.974-2.971Z" fill="#1e4732"/>
    <path id="Path_4" data-name="Path 4" d="M345.038,121.809h-2.979a2.746,2.746,0,0,0-2.974,2.979v19.924a.883.883,0,0,1-.993,1h-8.827a7.389,7.389,0,0,1-8.036-8.039V112.48a2.739,2.739,0,0,0-2.974-2.979H315.28a2.739,2.739,0,0,0-2.974,2.979v25.193a17.949,17.949,0,0,0,1.186,6.6,14.994,14.994,0,0,0,3.374,5.2,15.426,15.426,0,0,0,5.259,3.423,17.766,17.766,0,0,0,6.744,1.243h9.223a.878.878,0,0,1,.993.993v4.27a11.455,11.455,0,0,1-2.184,7.378q-2.18,2.736-7.24,2.728a19.521,19.521,0,0,1-5.95-.791,23.647,23.647,0,0,1-4.564-1.986q-2.58-1.282-3.867,1.2l-1.191,2.276a2.719,2.719,0,0,0-.25,2.188,3.27,3.27,0,0,0,1.441,1.784,23.236,23.236,0,0,0,5.949,2.728,29.033,29.033,0,0,0,8.432,1.041,18.725,18.725,0,0,0,7.64-1.485,17.483,17.483,0,0,0,5.751-4.02,17.833,17.833,0,0,0,3.669-5.9,19.808,19.808,0,0,0,1.291-7.135V124.788a2.746,2.746,0,0,0-2.974-2.979Z" fill="#1e4732"/>
    <path id="Path_5" data-name="Path 5" d="M376.777,109.5h-7.442a.869.869,0,0,1-.989-.985v-6.942a2.756,2.756,0,0,0-2.979-2.986h-2.974a2.75,2.75,0,0,0-2.975,2.986v6.942a.872.872,0,0,1-.993.985H341.931a2.745,2.745,0,0,0-2.979,2.979v2.478a2.755,2.755,0,0,0,2.979,2.978h16.494a.878.878,0,0,1,.993.993V138.77q0,7.242,3.52,11.3T373.9,154.14h2.877a2.743,2.743,0,0,0,2.975-2.971v-2.486a2.745,2.745,0,0,0-2.975-2.971h-1.985c-2.515,0-4.214-.661-5.11-1.985a9.657,9.657,0,0,1-1.336-5.457V118.929a.875.875,0,0,1,.989-.993h7.442a2.754,2.754,0,0,0,2.975-2.978V112.48a2.744,2.744,0,0,0-2.975-2.979Z" fill="#1e4732"/>
    <path id="Path_6" data-name="Path 6" d="M418.433,109.5H403.657a18.966,18.966,0,0,0-13.641,5.5,17.744,17.744,0,0,0-3.915,6.006,19.491,19.491,0,0,0-1.389,7.337v8.831a21.537,21.537,0,0,0,1.187,7.289,17.53,17.53,0,0,0,3.273,5.7,14.251,14.251,0,0,0,4.96,3.673,15.269,15.269,0,0,0,6.349,1.292,16.479,16.479,0,0,0,6.6-1.187,9.871,9.871,0,0,0,4.117-3.084.747.747,0,0,1,.843-.339.679.679,0,0,1,.448.743,2.929,2.929,0,0,0,.791,1.986,2.788,2.788,0,0,0,2.184.888h2.974a2.744,2.744,0,0,0,2.979-2.971V112.48a2.745,2.745,0,0,0-2.979-2.979Zm-5.949,26.186a12.731,12.731,0,0,1-.645,4.02,11.023,11.023,0,0,1-1.934,3.519,9.3,9.3,0,0,1-3.225,2.535,10.4,10.4,0,0,1-4.613.936,8.1,8.1,0,0,1-6.2-2.373,8.653,8.653,0,0,1-2.232-6.151v-9.824a10.678,10.678,0,0,1,2.728-7.337,9.741,9.741,0,0,1,7.689-3.076h7.438a.878.878,0,0,1,.993.993Z" fill="#1e4732"/>
    <path id="Path_7" data-name="Path 7" d="M454.043,147.44a12.553,12.553,0,0,0,1.288-5.8,11.589,11.589,0,0,0-.892-4.714,12.23,12.23,0,0,0-2.478-3.665,20.29,20.29,0,0,0-3.818-3.035,38.912,38.912,0,0,0-5.009-2.575,26.426,26.426,0,0,1-4.763-2.672,4.105,4.105,0,0,1-1.884-3.374,4.472,4.472,0,0,1,1.34-3.374,5.912,5.912,0,0,1,4.213-1.291,8.557,8.557,0,0,1,5.953,2.478,2.012,2.012,0,0,0,1.934.75,4.161,4.161,0,0,0,1.836-1.146l1.784-1.889a2.61,2.61,0,0,0,.844-2.034,3.615,3.615,0,0,0-.844-2.131,15.256,15.256,0,0,0-4.464-2.97,17.4,17.4,0,0,0-12.943-.453,13.457,13.457,0,0,0-4.464,2.834,12.291,12.291,0,0,0-2.826,4.165,13.023,13.023,0,0,0-.992,5.061,11.82,11.82,0,0,0,3.023,8.282,17.659,17.659,0,0,0,3.523,3.019,38.435,38.435,0,0,0,4.763,2.68,28.24,28.24,0,0,1,5.7,3.471,4.284,4.284,0,0,1,1.537,3.277,3.654,3.654,0,0,1-1.788,3.173,7.891,7.891,0,0,1-4.464,1.186,8.416,8.416,0,0,1-3.717-.742,13.488,13.488,0,0,1-2.631-1.631q-2.379-2.082-4.065-.105l-1.788,2.188a2.683,2.683,0,0,0-.839,2.082,3.256,3.256,0,0,0,.839,2.083,12.528,12.528,0,0,0,4.763,3.326,19.819,19.819,0,0,0,7.539,1.235,18.478,18.478,0,0,0,5.5-.848,14.276,14.276,0,0,0,4.86-2.575A12.993,12.993,0,0,0,454.043,147.44Z" fill="#1e4732"/>
    <g id="Group_2" data-name="Group 2">
      <g id="Group_1" data-name="Group 1">
        <path id="Path_8" data-name="Path 8" d="M510.458,105.077c-.233-.725-.909-1.1-2.028-1.1h-5.238a4.89,4.89,0,0,0-2.177.4,6.115,6.115,0,0,0-1.581,1.182l-27.908,21.852a.73.73,0,0,1-1.179-.56l.04-15.194a2.731,2.731,0,0,0-2.966-2.969h-2.965a2.736,2.736,0,0,0-2.969,2.969l.014,27.75a3,3,0,0,0,4.872,2.348l43.441-34.61A1.97,1.97,0,0,0,510.458,105.077Z" fill="#1dbf73"/>
        <path id="Path_9" data-name="Path 9" d="M495.836,150.558l-9.263-19.714-6.943,5.532,6.919,15.087c.779,1.825,1.985,2.729,3.617,2.729h3.716a2.144,2.144,0,0,0,2.054-1.061A2.782,2.782,0,0,0,495.836,150.558Z" fill="#1e4732"/>
      </g>
      <path id="Path_10" data-name="Path 10" d="M461.5,145.822l.035,4.877v1.852a1.6,1.6,0,0,0,1.6,1.6h5.919a1.6,1.6,0,0,0,1.6-1.6s.041-2.361,0-9.17C463.743,149.715,461.5,145.822,461.5,145.822Z" fill="#1e4732"/>
    </g>
  </g>
</svg>
