<svg xmlns="http://www.w3.org/2000/svg" width="14" height="18" viewBox="0 0 14 18"><path d="M12.61 2.055h-2.33V.541A.542.542 0 0 0 9.728 0c-.03 0-.05.01-.06.02A.075.075 0 0 0 9.63 0H4.074a.533.533 0 0 0-.54.54v1.515H1.192c-.669 0-1.19.521-1.19 1.19v1.947h1.033v11.083c0 .669.51 1.18 1.18 1.18h9.371c.669 0 1.19-.511 1.19-1.18V5.192H13.8V3.245c0-.669-.522-1.19-1.19-1.19zm-7.995-.973h4.573v.973H4.615v-.973zm7.07 15.193c0 .069-.029.098-.098.098H2.216c-.07 0-.099-.03-.099-.098V5.192h9.569v11.083zM12.709 4.11H1.095v-.866c0-.069.03-.108.098-.108H12.61c.069 0 .098.04.098.108v.866z"/><path d="M8.883 6.461h1.092v8.949H8.883zm-2.518 0h1.092v8.949H6.365zm-2.517 0H4.94v8.949H3.848z"/></svg>