<svg xmlns="http://www.w3.org/2000/svg" width="34" height="34" viewBox="0 0 34 34"><g fill="none" fill-rule="evenodd"><rect width="34" height="34" fill="#000" rx="8"/><path fill="#FFF" fill-rule="nonzero" d="M21.623 7.334l-2.398-.004c-2.695 0-4.436 1.932-4.436 4.922v2.27h-2.412c-.208 0-.377.182-.377.408v3.288c0 .225.169.408.377.408h2.412v8.296c0 .226.169.408.377.408h3.146c.209 0 .378-.182.378-.408v-8.296h2.82c.208 0 .376-.183.376-.408l.002-3.288a.426.426 0 0 0-.11-.289.363.363 0 0 0-.268-.12h-2.82v-1.923c0-.925.203-1.394 1.317-1.394h1.616c.208 0 .377-.184.377-.409V7.742c0-.225-.169-.407-.377-.408z"/></g></svg>