<svg xmlns="http://www.w3.org/2000/svg" width="34" height="34" viewBox="0 0 34 34"><g fill="none" fill-rule="evenodd"><rect width="34" height="34" fill="#000" rx="8"/><g fill="#FFF" fill-rule="nonzero"><path d="M18.963 15.004a4.192 4.192 0 0 0-5.928 0l-3.809 3.811a4.192 4.192 0 0 0 5.926 5.931l3.144-3.143a.3.3 0 0 0-.213-.512h-.12a5.04 5.04 0 0 1-1.916-.372.3.3 0 0 0-.326.066L13.46 23.05a1.797 1.797 0 1 1-2.542-2.542l3.824-3.82a1.796 1.796 0 0 1 2.539 0c.472.444 1.21.444 1.682 0a1.2 1.2 0 0 0 .348-.761 1.198 1.198 0 0 0-.348-.922z"/><path d="M24.739 9.228a4.192 4.192 0 0 0-5.928 0l-3.141 3.138a.3.3 0 0 0 .218.512H16a5.03 5.03 0 0 1 1.913.374.3.3 0 0 0 .327-.066l2.254-2.252a1.797 1.797 0 1 1 2.542 2.543l-2.808 2.805-.024.027-.982.976c-.702.7-1.838.7-2.54 0a1.228 1.228 0 0 0-1.682 0 1.198 1.198 0 0 0 0 1.689c.347.348.752.632 1.198.838.062.03.125.054.188.081.063.027.129.048.192.072.063.024.129.045.191.063l.177.048c.12.03.24.054.362.074.148.022.297.036.447.042h.225l.18-.02c.066-.004.134-.019.212-.019h.102l.207-.03.096-.017.173-.036h.033a4.191 4.191 0 0 0 1.943-1.102l3.812-3.812a4.192 4.192 0 0 0 0-5.928z"/></g></g></svg>