<svg xmlns="http://www.w3.org/2000/svg" width="110" height="14" viewBox="0 0 110 14"><g fill="none" fill-rule="evenodd"><path fill="#FFF" d="M12.12 13.81H8.645V8.043h-5.15v5.767H0V0h3.496v5.482h5.149V0h3.475v13.81zM27.235 0v9.02c0 .81-.137 1.524-.409 2.144a4.244 4.244 0 0 1-1.155 1.56 5.046 5.046 0 0 1-1.798.954c-.7.215-1.479.322-2.335.322-.85 0-1.627-.107-2.33-.322-.704-.215-1.307-.533-1.808-.954a4.318 4.318 0 0 1-1.17-1.56c-.28-.62-.419-1.334-.419-2.144V0h3.516v9.02c0 .854.19 1.47.573 1.85.381.38.927.569 1.638.569.724 0 1.271-.19 1.643-.57.372-.378.558-.995.558-1.849V0h3.496zm3.71 13.81V0h4.671c.983 0 1.886.161 2.71.484a6.23 6.23 0 0 1 2.126 1.36 6.185 6.185 0 0 1 1.389 2.097c.332.813.498 1.706.498 2.68v.578c0 .98-.166 1.875-.498 2.684a6.145 6.145 0 0 1-1.39 2.087 6.288 6.288 0 0 1-2.116 1.357c-.816.322-1.71.483-2.679.483h-4.71zm3.496-11.24v8.68h1.215c1.003 0 1.773-.34 2.31-1.02.538-.68.807-1.69.807-3.03v-.598c0-1.335-.269-2.34-.806-3.017-.538-.676-1.322-1.015-2.35-1.015H34.44zm23.34 11.24h-3.475V8.043h-5.15v5.767h-3.495V0h3.496v5.482h5.149V0h3.476v13.81zM72.897 0v9.02c0 .81-.136 1.524-.409 2.144a4.244 4.244 0 0 1-1.155 1.56 5.05 5.05 0 0 1-1.797.954c-.7.215-1.48.322-2.336.322-.85 0-1.627-.107-2.33-.322-.704-.215-1.307-.533-1.808-.954a4.318 4.318 0 0 1-1.17-1.56c-.28-.62-.418-1.334-.418-2.144V0h3.515v9.02c0 .854.191 1.47.573 1.85.382.38.928.569 1.638.569.724 0 1.272-.19 1.643-.57.372-.378.558-.995.558-1.849V0h3.496zm3.71 13.81V0h4.672c.982 0 1.885.161 2.708.484a6.23 6.23 0 0 1 2.127 1.36 6.185 6.185 0 0 1 1.389 2.097c.332.813.498 1.706.498 2.68v.578c0 .98-.166 1.875-.498 2.684a6.145 6.145 0 0 1-1.39 2.087 6.288 6.288 0 0 1-2.116 1.357c-.816.322-1.71.483-2.679.483h-4.71zm3.496-11.24v8.68h1.215c1.003 0 1.773-.34 2.31-1.02.539-.68.808-1.69.808-3.03v-.598c0-1.335-.27-2.34-.807-3.017-.538-.676-1.321-1.015-2.35-1.015h-1.176z"/><path fill="#F3F2F2" d="M90 14v-2.853h3.097V14H90zm11.32-2.46C99.855 13.172 98.34 14 97.39 14c-1.027 0-1.49-.544-1.49-1.396 0-.284.078-.615.18-.922.463-1.49 1.105-2.91 1.541-4.022.103-.236.103-.331.257-.568.334-.567 1.181-.851 1.746-.851h.154c.257.047.334.094.334.213 0 .094-.077.236-.128.378l-.796 1.916a45.48 45.48 0 0 0-1.182 3.265c-.05.19-.102.355-.102.497 0 .189.077.33.257.33.41 0 1.463-.638 2.773-2.057a.786.786 0 0 1 .488-.19c.18 0 .308.072.308.26 0 .166-.128.356-.41.687zm-1.773-6.174c-.616 0-1.104-.403-1.104-.923 0-.733.848-1.443 1.67-1.443.616 0 1.104.331 1.104.946 0 .663-.77 1.42-1.67 1.42zm10.145 5.11c.154 0 .308.07.308.26 0 .165-.128.402-.385.733-.231.307-1.361 1.3-2.312 1.3-.308 0-.642-.07-.924-.141-1.027.923-2.235 1.372-3.313 1.372-1.644 0-2.594-1.183-2.594-2.65 0-2.389 2.363-5.156 4.982-5.156h.206c.436.023 1.438.141 1.464.757 0 .473-.437.59-.874.59h-.128c-.103 0-.231-.023-.334-.023-.54 0-1.156.119-1.72.473-.9.592-1.542 1.68-1.644 2.555-.026.119-.026.237-.026.331 0 1.136.745 1.988 1.618 1.988.462 0 1.002-.237 1.438-.663-.719-.591-1.001-1.254-1.001-1.845 0-1.372 1.464-2.531 2.542-2.531.617 0 1.105.378 1.105 1.325 0 .851-.206 1.608-.822 2.46.873.236 1.284-.19 1.952-.923.102-.142.256-.213.462-.213zm-3.519.685c.231-.591.334-1.017.334-1.324 0-.403-.154-.592-.334-.592-.23 0-.488.284-.488.733 0 .308.129.71.488 1.183z"/></g></svg>