<svg xmlns="http://www.w3.org/2000/svg" width="115" height="20" viewBox="0 0 115 20"><g fill="none"><path fill="#000" d="M4.2 12.905c0 .538.073.995.221 1.37.148.375.343.68.585.917.242.236.523.41.844.518.321.11.655.164 1.001.164.361 0 .702-.063 1.023-.19.321-.128.603-.317.844-.569.242-.25.433-.562.574-.933.14-.371.211-.797.211-1.277V3.646a.474.474 0 0 1 .498-.48h3.16c.166 0 .296.05.39.148a.47.47 0 0 1 .14.332v9.204c0 1.274-.185 2.344-.557 3.21-.371.866-.87 1.563-1.499 2.09a5.722 5.722 0 0 1-2.18 1.136 9.692 9.692 0 0 1-2.604.344 9.47 9.47 0 0 1-2.608-.355 5.76 5.76 0 0 1-2.187-1.157C1.43 17.583.93 16.884.557 16.022.186 15.159 0 14.102 0 12.85V3.646a.5.5 0 0 1 .124-.332.388.388 0 0 1 .309-.148H3.68a.57.57 0 0 1 .34.137c.12.09.18.205.18.343v9.259zm11.061 6.19c.058-.11.117-.22.179-.333a4.03 4.03 0 0 1 .21-.344l4.871-7.337-2.462-3.733-2.462-3.734a1.09 1.09 0 0 1-.103-.164.506.506 0 0 1-.049-.164c.015-.058.056-.085.125-.082a.416.416 0 0 0 .21-.049h3.767c.267 0 .477.138.628.415l2.652 4.018L25.51 3.57c.152-.277.36-.415.628-.415h3.604c.08 0 .153.002.222.006a.518.518 0 0 1 .179.038c.05.022.075.054.075.098 0 .087-.04.182-.119.284l-4.979 7.5 5.077 7.643c.072.102.128.194.167.278.04.084.056.155.05.213 0 .11-.066.164-.196.164h-3.875a.56.56 0 0 1-.335-.11.74.74 0 0 1-.238-.294l-2.944-4.4-2.912 4.4a.74.74 0 0 1-.238.295.56.56 0 0 1-.335.109h-3.886a.244.244 0 0 1-.152-.05.161.161 0 0 1-.064-.136c0-.036.007-.069.021-.098zm18.919-4.029c.196.197.407.362.634.497.227.135.445.244.655.328.209.083.393.143.552.18.158.036.267.054.324.054.138 0 .312-.005.525-.016a2.79 2.79 0 0 0 .612-.098 1.27 1.27 0 0 0 .503-.268c.14-.123.211-.298.211-.524 0-.204-.04-.366-.119-.486a.96.96 0 0 0-.346-.305 2.828 2.828 0 0 0-.558-.224 41.07 41.07 0 0 1-.741-.23c-.866-.232-1.58-.513-2.143-.84-.563-.328-1.008-.693-1.337-1.097a3.583 3.583 0 0 1-.687-1.305 5.464 5.464 0 0 1-.195-1.474c0-.604.12-1.153.357-1.648a3.634 3.634 0 0 1 1.018-1.272 4.82 4.82 0 0 1 1.58-.82 6.798 6.798 0 0 1 2.046-.288c.454 0 .88.038 1.277.114a5.05 5.05 0 0 1 1.136.36 5.59 5.59 0 0 1 1.056.634 8.45 8.45 0 0 1 1.022.922c.123.146.186.282.19.41.003.127-.078.263-.244.41-.281.232-.55.461-.806.687-.256.226-.521.477-.796.753a.6.6 0 0 1-.26.137.522.522 0 0 1-.248-.006.727.727 0 0 1-.228-.109.941.941 0 0 1-.194-.186 1.882 1.882 0 0 0-.866-.573 3.15 3.15 0 0 0-.91-.147c-.353 0-.635.062-.844.185-.209.124-.306.313-.292.568.014.19.085.337.211.442a1.5 1.5 0 0 0 .465.257c.184.065.38.118.585.158.206.04.395.086.568.137.65.21 1.245.44 1.786.687a5.44 5.44 0 0 1 1.407.912c.397.36.705.792.926 1.294.22.502.33 1.113.33 1.834 0 .72-.143 1.365-.428 1.932a4.13 4.13 0 0 1-1.174 1.43 5.365 5.365 0 0 1-1.77.885 7.658 7.658 0 0 1-2.202.306c-.448 0-.902-.04-1.364-.12-.462-.08-.91-.21-1.342-.388a6.063 6.063 0 0 1-1.234-.688 4.86 4.86 0 0 1-1.04-1.02 1.137 1.137 0 0 1-.178-.323.907.907 0 0 1-.054-.333.811.811 0 0 1 .065-.3.587.587 0 0 1 .19-.235l1.396-1.408c.173-.146.326-.197.46-.153.133.044.304.168.514.371zM45.491 3.352c0-.226.074-.395.222-.508.148-.113.36-.22.633-.322l2.457-.863a.52.52 0 0 1 .103-.01h.092c.267 0 .446.078.536.234.09.157.135.362.135.617l-.01 3.44h1.807a.78.78 0 0 1 .563.207c.144.138.216.345.216.622v2.107c0 .306-.072.53-.216.671a.768.768 0 0 1-.563.213h-1.808l.011 8.778c0 .277-.08.486-.238.628-.159.142-.379.213-.66.213h-2.446c-.556 0-.834-.28-.834-.84l-.01-8.779h-.79c-.556 0-.834-.294-.834-.884V6.769c0-.553.278-.83.833-.83h.79l.011-2.587z"/><path fill="#C75875" d="M53.533 12.457a7.278 7.278 0 0 1 .969-3.652 7.12 7.12 0 0 1 1.104-1.441 6.88 6.88 0 0 1 1.434-1.108 7.152 7.152 0 0 1 3.615-.96c.981 0 1.903.183 2.765.55a7 7 0 0 1 2.252 1.518 7.217 7.217 0 0 1 1.515 2.27c.372.87.557 1.811.557 2.823 0 .67-.084 1.312-.254 1.927a7.31 7.31 0 0 1-.714 1.72 7.054 7.054 0 0 1-2.538 2.56 7.023 7.023 0 0 1-3.583.966c-.664 0-1.3-.084-1.91-.251a7.02 7.02 0 0 1-3.14-1.829 7.054 7.054 0 0 1-1.103-1.446 7.31 7.31 0 0 1-.714-1.72 7.217 7.217 0 0 1-.255-1.927z"/><path fill="#000" d="M69.898 6.321a.81.81 0 0 1 .082-.355.773.773 0 0 1 .2-.267c.187-.124.382-.186.584-.186H72.4c.137 0 .245.026.324.077a.69.69 0 0 1 .2.196c.055.08.102.171.141.273a2.5 2.5 0 0 0 .146.306c.015.03.044.1.087.213l.14.371a30.473 30.473 0 0 0 .239.617c.216-.24.424-.493.622-.759.199-.266.41-.511.633-.737.224-.225.473-.411.747-.557a2.05 2.05 0 0 1 .974-.218c.39 0 .738.03 1.045.087.306.059.597.144.871.257.274.113.547.257.817.431.27.175.565.379.882.612.498.269.592.67.282 1.2l-.985 1.693c-.145.218-.321.353-.53.404-.21.05-.437.018-.682-.099a3.423 3.423 0 0 0-.948-.682 2.579 2.579 0 0 0-1.098-.224 2.1 2.1 0 0 0-.742.12c-.212.08-.405.193-.579.339-.173.145-.335.32-.487.524-.151.204-.303.43-.454.677v7.904c0 .277-.067.486-.2.628-.134.142-.356.213-.666.213h-2.435c-.563 0-.845-.28-.845-.84V6.32zm12.447.044a.95.95 0 0 1 .195-.6c.13-.168.332-.252.606-.252h2.479c.087 0 .18.02.281.06.101.04.195.099.282.175.086.077.16.166.222.268a.664.664 0 0 1 .092.349v12.173c0 .277-.076.486-.228.628-.151.142-.368.213-.65.213h-2.478c-.534 0-.8-.28-.8-.84V6.364zm0-5.525c0-.305.065-.522.195-.649S82.872 0 83.146 0h2.511c.253 0 .457.064.612.191.155.127.233.344.233.65V2.97c0 .087-.02.182-.06.283a1.2 1.2 0 0 1-.168.295.916.916 0 0 1-.265.235.678.678 0 0 1-.352.093h-2.51c-.535 0-.802-.302-.802-.906V.84zm18.271 16.88a7.203 7.203 0 0 1-2.144 1.38 6.483 6.483 0 0 1-2.521.497 7.265 7.265 0 0 1-2.804-.546 7.291 7.291 0 0 1-2.316-1.512 7.256 7.256 0 0 1-1.58-2.276 6.914 6.914 0 0 1-.585-2.85 7.411 7.411 0 0 1 .893-3.548A7.15 7.15 0 0 1 90.6 7.42a6.586 6.586 0 0 1 3.014-1.862 6.58 6.58 0 0 1 1.872-.262c.6 0 1.18.08 1.743.24a6.75 6.75 0 0 1 1.585.677 7.067 7.067 0 0 1 2.42 2.386c.295.484.524 1 .687 1.55a5.96 5.96 0 0 1 .243 1.698c0 .378-.005.687-.016.928-.01.24-.067.43-.168.573-.1.142-.268.24-.503.295-.235.054-.58.081-1.034.081H92.65c.073.466.219.856.439 1.169.22.313.474.562.763.748.288.185.595.318.92.398.325.08.631.12.92.12.26 0 .527-.027.8-.082.275-.054.54-.127.796-.218s.491-.197.704-.317a2.34 2.34 0 0 0 .514-.376c.115-.095.215-.166.298-.213a.527.527 0 0 1 .265-.071c.094 0 .19.033.287.098.097.066.207.16.33.284l1.147 1.31c.08.095.13.18.152.257a.857.857 0 0 1 .032.234c0 .146-.04.271-.12.377a1.342 1.342 0 0 1-.28.278zm-5.207-9.095c-.281 0-.553.056-.817.17-.263.112-.51.263-.741.452-.231.19-.439.404-.623.644s-.333.484-.449.732h5.531a6.439 6.439 0 0 0-.492-.786 3.351 3.351 0 0 0-.606-.633 2.61 2.61 0 0 0-.78-.426 3.106 3.106 0 0 0-1.023-.153zm11.073 6.441c.195.197.406.362.633.497.227.135.446.244.655.328.21.083.393.143.552.18.159.036.267.054.325.054.137 0 .312-.005.525-.016a2.79 2.79 0 0 0 .611-.098c.195-.055.363-.144.503-.268.141-.123.211-.298.211-.524 0-.204-.04-.366-.119-.486a.96.96 0 0 0-.346-.305 2.828 2.828 0 0 0-.557-.224c-.22-.066-.468-.142-.742-.23-.866-.232-1.58-.513-2.143-.84-.563-.328-1.008-.693-1.337-1.097a3.583 3.583 0 0 1-.687-1.305 5.464 5.464 0 0 1-.195-1.474c0-.604.12-1.153.357-1.648a3.634 3.634 0 0 1 1.018-1.272 4.82 4.82 0 0 1 1.58-.82 6.798 6.798 0 0 1 2.046-.288c.454 0 .88.038 1.277.114a5.05 5.05 0 0 1 1.136.36 5.59 5.59 0 0 1 1.056.634c.342.258.683.566 1.023.922.122.146.185.282.189.41.004.127-.078.263-.244.41-.281.232-.55.461-.806.687-.256.226-.521.477-.795.753a.6.6 0 0 1-.26.137.522.522 0 0 1-.25-.006.727.727 0 0 1-.226-.109.941.941 0 0 1-.195-.186 1.882 1.882 0 0 0-.866-.573 3.15 3.15 0 0 0-.91-.147c-.353 0-.634.062-.844.185-.209.124-.306.313-.292.568a.61.61 0 0 0 .211.442c.127.106.282.191.466.257.184.065.378.118.584.158.206.04.395.086.568.137.65.21 1.245.44 1.786.687a5.44 5.44 0 0 1 1.407.912c.397.36.706.792.926 1.294.22.502.33 1.113.33 1.834 0 .72-.143 1.365-.428 1.932a4.13 4.13 0 0 1-1.174 1.43 5.365 5.365 0 0 1-1.77.885 7.658 7.658 0 0 1-2.202.306c-.448 0-.902-.04-1.364-.12-.462-.08-.91-.21-1.342-.388a6.063 6.063 0 0 1-1.234-.688 4.86 4.86 0 0 1-1.04-1.02 1.137 1.137 0 0 1-.178-.323.907.907 0 0 1-.054-.333.811.811 0 0 1 .065-.3.587.587 0 0 1 .19-.235l1.396-1.408c.173-.146.326-.197.46-.153.133.044.305.168.514.371z"/></g></svg>