<svg xmlns="http://www.w3.org/2000/svg" width="34" height="34" viewBox="0 0 34 34"><g fill="none" fill-rule="evenodd"><rect width="34" height="34" fill="#000" rx="8"/><path fill="#FFF" fill-rule="nonzero" d="M26.641 10.955a7.903 7.903 0 0 1-1.376.464 4.29 4.29 0 0 0 1.133-1.803.225.225 0 0 0-.33-.262 7.941 7.941 0 0 1-2.103.869.558.558 0 0 1-.5-.124 4.303 4.303 0 0 0-2.847-1.075 4.6 4.6 0 0 0-1.363.21 4.169 4.169 0 0 0-2.81 3.004 4.59 4.59 0 0 0-.102 1.584.16.16 0 0 1-.173.174 11.283 11.283 0 0 1-7.754-4.143.225.225 0 0 0-.37.029 4.3 4.3 0 0 0-.582 2.163c0 1.167.469 2.266 1.283 3.067a3.856 3.856 0 0 1-.982-.38.225.225 0 0 0-.334.194 4.308 4.308 0 0 0 2.513 3.97 3.853 3.853 0 0 1-.817-.068.225.225 0 0 0-.256.29 4.313 4.313 0 0 0 3.406 2.933A7.94 7.94 0 0 1 7.83 23.4h-.497a.33.33 0 0 0-.323.248.34.34 0 0 0 .164.377 11.81 11.81 0 0 0 5.934 1.6c1.824 0 3.53-.362 5.072-1.076a11.2 11.2 0 0 0 3.71-2.78 12.19 12.19 0 0 0 2.272-3.806c.506-1.35.773-2.79.773-4.165v-.065c0-.221.1-.429.274-.57a8.505 8.505 0 0 0 1.71-1.878c.126-.187-.072-.422-.278-.33z"/></g></svg>