<svg xmlns="http://www.w3.org/2000/svg" width="34" height="34" viewBox="0 0 34 34"><g fill="none" fill-rule="evenodd"><rect width="34" height="34" fill="#000" rx="8"/><path fill="#FFF" fill-rule="nonzero" d="M24.533 9.031c1.347 0 2.442 1.1 2.438 2.446v10.31a2.444 2.444 0 0 1-2.442 2.442H9.442A2.444 2.444 0 0 1 7 21.787V11.473a2.444 2.444 0 0 1 2.442-2.442h15.091zm-4.938 7.471l4.884-4.38a.56.56 0 0 0 .042-.79.56.56 0 0 0-.79-.04l-6.735 6.045-1.314-1.174c-.004-.004-.008-.008-.008-.012a.826.826 0 0 0-.091-.079l-5.347-4.785a.557.557 0 0 0-.79.046.557.557 0 0 0 .046.789l4.942 4.417-4.922 4.608a.56.56 0 0 0 .765.818l4.996-4.674 1.355 1.211a.558.558 0 0 0 .744-.004l1.392-1.248 4.967 4.719a.557.557 0 0 0 .769-.81l-4.905-4.657z"/></g></svg>