<svg xmlns="http://www.w3.org/2000/svg" width="20" height="20" viewBox="0 0 20 20"><path fill="#FFF" fill-rule="evenodd" stroke="#C75875" stroke-width=".6" d="M19.426 18.125l-4.314-4.257.168-.21a8.137 8.137 0 0 0 1.792-5.09C17.072 4.01 13.311.3 8.687.3 4.06.3.3 4.01.3 8.568c0 4.558 3.762 8.268 8.387 8.268 1.76 0 3.443-.546 4.86-1.545l.206-.144.178.176 4.161 4.105c.18.177.418.272.668.272a.945.945 0 0 0 .666-.271.913.913 0 0 0 0-1.304zM2.181 8.568c0-3.54 2.92-6.42 6.506-6.42 3.585 0 6.503 2.88 6.503 6.42 0 3.542-2.917 6.42-6.503 6.42-3.587 0-6.506-2.879-6.506-6.42z"/></svg>