<?xml version="1.0" encoding="UTF-8"?>
<svg width="115px" height="20px" viewBox="0 0 115 20" version="1.1" xmlns="http://www.w3.org/2000/svg" xmlns:xlink="http://www.w3.org/1999/xlink">
    <!-- Generator: Sketch 53.2 (72643) - https://sketchapp.com -->
    <title>Logo</title>
    <desc>Created with Sketch.</desc>
    <g id="Designs" stroke="none" stroke-width="1" fill="none" fill-rule="evenodd">
        <g id="Home---Apps-Copy" transform="translate(-663.000000, -20.000000)" fill-rule="nonzero">
            <g id="Header-Copy">
                <g id="Logo" transform="translate(663.000000, 20.000000)">
                    <path d="M4.19952941,12.9046588 C4.19952941,13.4432654 4.27348946,13.8999824 4.42141176,14.2748235 C4.56933407,14.6496646 4.76415565,14.9553557 5.00588235,15.1919059 C5.24760905,15.4284561 5.529018,15.6013171 5.85011765,15.7104941 C6.17121729,15.8196711 6.50493944,15.8742588 6.85129412,15.8742588 C7.21208024,15.8742588 7.553018,15.8105732 7.87411765,15.6832 C8.19521729,15.5558268 8.47662624,15.3665895 8.71835294,15.1154824 C8.96007964,14.8643752 9.15129341,14.5532254 9.292,14.1820235 C9.43270659,13.8108217 9.50305882,13.3850377 9.50305882,12.9046588 L9.50305882,3.64649412 C9.50305882,3.5154817 9.54815641,3.40266714 9.63835294,3.30804706 C9.72854947,3.21342698 9.84941101,3.16611765 10.0009412,3.16611765 L13.1614118,3.16611765 C13.3273734,3.16611765 13.4572544,3.21524657 13.5510588,3.31350588 C13.6448632,3.4117652 13.6917647,3.52276017 13.6917647,3.64649412 L13.6917647,12.8500706 C13.6917647,14.1238024 13.5059626,15.1937212 13.1343529,16.0598588 C12.7627432,16.9259965 12.263062,17.6228993 11.6352941,18.1505882 C11.0075263,18.6782771 10.2805532,19.0567518 9.45435294,19.2860235 C8.62815273,19.5152953 7.76047513,19.6299294 6.85129412,19.6299294 C5.9421131,19.6299294 5.0726316,19.5116561 4.24282353,19.2751059 C3.41301546,19.0385557 2.68423843,18.6528027 2.05647059,18.1178353 C1.42870274,17.5828679 0.929021466,16.8841455 0.557411765,16.0216471 C0.185802064,15.1591486 -5.68434189e-14,14.101967 -5.68434189e-14,12.8500706 L-5.68434189e-14,3.64649412 C-5.68434189e-14,3.52276017 0.0414897812,3.4117652 0.124470588,3.31350588 C0.207451395,3.21524657 0.310273896,3.16611765 0.432941176,3.16611765 L3.68,3.16611765 C3.78823584,3.16611765 3.90188176,3.21160739 4.02094118,3.30258824 C4.1400006,3.39356908 4.19952941,3.50820323 4.19952941,3.64649412 L4.19952941,12.9046588 Z" id="Path" fill="#000000"></path>
                    <path d="M15.2611765,19.0949647 C15.3189022,18.9857877 15.3784311,18.8747927 15.4397647,18.7619765 C15.5010983,18.6491602 15.5714506,18.5345261 15.6508235,18.4180706 L20.5214118,11.0814118 C19.6916037,9.82223684 18.8708276,8.57763752 18.0590588,7.34757647 C17.2472901,6.11751542 16.426514,4.8729161 15.5967059,3.61374118 C15.5534115,3.55551343 15.5191374,3.50092574 15.4938824,3.44997647 C15.4686273,3.3990272 15.4523922,3.34443951 15.4451765,3.28621176 C15.4596079,3.22798402 15.5010977,3.20069018 15.5696471,3.20432941 C15.6381964,3.20796865 15.7085487,3.19159234 15.7807059,3.1552 L19.5472941,3.1552 C19.8142758,3.1552 20.0235287,3.29348881 20.1750588,3.57007059 L22.8268235,7.58776471 L25.5110588,3.57007059 C25.662589,3.29348881 25.8718418,3.1552 26.1388235,3.1552 L29.7430588,3.1552 C29.8224318,3.1552 29.8963918,3.15701959 29.9649412,3.16065882 C30.0334905,3.16429806 30.0930194,3.17703518 30.1435294,3.19887059 C30.1940395,3.22070599 30.2192941,3.25345861 30.2192941,3.29712941 C30.2192941,3.38447102 30.1796082,3.47908969 30.1002353,3.58098824 L25.1214118,11.0814118 L30.1976471,18.7237647 C30.2698043,18.8256633 30.3257253,18.9184623 30.3654118,19.0021647 C30.4050982,19.0858671 30.4213334,19.1568311 30.4141176,19.2150588 C30.4141176,19.3242358 30.3491771,19.3788235 30.2192941,19.3788235 L26.3444706,19.3788235 C26.2218033,19.3788235 26.1099613,19.3424317 26.0089412,19.2696471 C25.9079211,19.1968624 25.8285493,19.0986045 25.7708235,18.9748706 L22.8268235,14.5750588 L19.9152941,18.9748706 C19.8575683,19.0986045 19.7781966,19.1968624 19.6771765,19.2696471 C19.5761564,19.3424317 19.4643143,19.3788235 19.3416471,19.3788235 L15.456,19.3788235 C15.3982742,19.3788235 15.3477649,19.3624472 15.3044706,19.3296941 C15.2611763,19.296941 15.2395294,19.2514513 15.2395294,19.1932235 C15.2395294,19.1568312 15.246745,19.1240786 15.2611765,19.0949647 Z" id="Path" fill="#000000"></path>
                    <path d="M34.1807059,15.0663529 C34.3755304,15.2628716 34.5865871,15.4284542 34.8138824,15.5631059 C35.0411776,15.6977575 35.2594499,15.8069329 35.4687059,15.8906353 C35.6779618,15.9743377 35.86196,16.0343841 36.0207059,16.0707765 C36.1794518,16.1071688 36.287686,16.1253647 36.3454118,16.1253647 C36.4825105,16.1253647 36.6574891,16.1199059 36.8703529,16.1089882 C37.0832168,16.0980705 37.2870578,16.0653179 37.4818824,16.0107294 C37.6767069,15.9561409 37.8444699,15.866981 37.9851765,15.7432471 C38.1258831,15.6195131 38.1962353,15.4448325 38.1962353,15.2192 C38.1962353,15.0154029 38.1565494,14.8534594 38.0771765,14.7333647 C37.9978035,14.61327 37.8823537,14.511373 37.7308235,14.4276706 C37.5792934,14.3439682 37.3934913,14.269365 37.1734118,14.2038588 C36.9533322,14.1383526 36.7061974,14.0619298 36.432,13.9745882 C35.5661133,13.7416773 34.8517675,13.4614605 34.2889412,13.1339294 C33.7261148,12.8063984 33.2805507,12.4406608 32.9522353,12.0367059 C32.6239199,11.6327509 32.3948242,11.197869 32.2649412,10.7320471 C32.1350582,10.2662251 32.0701176,9.77493592 32.0701176,9.25816471 C32.0701176,8.65405188 32.1891753,8.10453581 32.4272941,7.6096 C32.665413,7.11466419 33.0045468,6.6906998 33.4447059,6.33769412 C33.8848649,5.98468843 34.4116048,5.71174998 35.0249412,5.51887059 C35.6382776,5.32599119 36.3201531,5.22955294 37.0705882,5.22955294 C37.5251787,5.22955294 37.9509,5.26776432 38.3477647,5.34418824 C38.7446294,5.42061215 39.1234492,5.54070506 39.4842353,5.70447059 C39.8450214,5.86823611 40.1967826,6.07930851 40.5395294,6.33769412 C40.8822762,6.59607972 41.223214,6.90359037 41.5623529,7.26023529 C41.6850202,7.40580465 41.7481568,7.54227387 41.7517647,7.66964706 C41.7553726,7.79702024 41.6741969,7.93348947 41.5082353,8.07905882 C41.2268221,8.31196979 40.9580405,8.54123809 40.7018824,8.76687059 C40.4457242,8.99250309 40.1805504,9.24360646 39.9063529,9.52018824 C39.8197643,9.59297291 39.7331769,9.63846265 39.6465882,9.65665882 C39.5599996,9.67485499 39.47702,9.6730354 39.3976471,9.6512 C39.3182741,9.6293646 39.2425102,9.5929728 39.1703529,9.54202353 C39.0981957,9.49107426 39.0332552,9.42920821 38.9755294,9.35642353 C38.7229791,9.07256329 38.4343546,8.88150637 38.1096471,8.78324706 C37.7849396,8.68498774 37.4818838,8.63585882 37.2004706,8.63585882 C36.8469002,8.63585882 36.5654912,8.69772487 36.3562353,8.82145882 C36.1469793,8.94519278 36.0495686,9.1344301 36.064,9.38917647 C36.0784314,9.57841663 36.1487837,9.72580339 36.2750588,9.83134118 C36.401334,9.93687896 36.5564697,10.0223997 36.7404706,10.0879059 C36.9244715,10.1534121 37.1192931,10.2061802 37.3249412,10.2462118 C37.5305893,10.2862433 37.7199991,10.3317331 37.8931765,10.3826824 C38.5425915,10.5937579 39.1378796,10.8230262 39.6790588,11.0704941 C40.220238,11.317962 40.6892529,11.6218335 41.0861176,11.9821176 C41.4829824,12.3424018 41.7914499,12.7736445 42.0115294,13.2758588 C42.2316089,13.7780731 42.3416471,14.3894552 42.3416471,15.1100235 C42.3416471,15.8305918 42.1991387,16.4747266 41.9141176,17.0424471 C41.6290966,17.6101675 41.2376495,18.0869 40.7397647,18.4726588 C40.2418799,18.8584176 39.6520034,19.1531911 38.9701176,19.3569882 C38.2882319,19.5607853 37.5540431,19.6626824 36.7675294,19.6626824 C36.3201546,19.6626824 35.8655709,19.6226514 35.4037647,19.5425882 C34.9419585,19.4625251 34.4945904,19.3333342 34.0616471,19.1550118 C33.6287037,18.9766893 33.2174137,18.747421 32.8277647,18.4672 C32.4381157,18.186979 32.0917662,17.8467157 31.7887059,17.4464 C31.7093329,17.3445015 31.6498041,17.2371457 31.6101176,17.1243294 C31.5704312,17.0115132 31.5523921,16.9005182 31.556,16.7913412 C31.5596079,16.6821642 31.5812547,16.5820867 31.6209412,16.4911059 C31.6606276,16.400125 31.7237643,16.3218827 31.8103529,16.2563765 L33.2065882,14.848 C33.3797656,14.7024306 33.5330974,14.6514821 33.6665882,14.6951529 C33.8000791,14.7388237 33.9714499,14.8625558 34.1807059,15.0663529 Z" id="Path" fill="#000000"></path>
                    <path d="M45.4912941,3.35171765 C45.4912941,3.12608515 45.5652542,2.95686331 45.7131765,2.84404706 C45.8610988,2.73123081 46.0721555,2.62387502 46.3463529,2.52197647 L48.8032941,1.65948235 C48.8393727,1.65220389 48.8736469,1.64856471 48.9061176,1.64856471 L48.9981176,1.64856471 C49.2650994,1.64856471 49.4436858,1.72680706 49.5338824,1.88329412 C49.6240789,2.03978117 49.6691765,2.2453948 49.6691765,2.50014118 L49.6583529,5.9392 L51.4658824,5.9392 C51.6967855,5.9392 51.8843914,6.00834441 52.0287059,6.14663529 C52.1730203,6.28492618 52.2451765,6.4923594 52.2451765,6.76894118 L52.2451765,8.87604706 C52.2451765,9.1817427 52.1730203,9.40555223 52.0287059,9.54748235 C51.8843914,9.68941247 51.6967855,9.76037647 51.4658824,9.76037647 L49.6583529,9.76037647 L49.6691765,18.5381647 C49.6691765,18.8147465 49.5898047,19.0239993 49.4310588,19.1659294 C49.2723129,19.3078595 49.0522367,19.3788235 48.7708235,19.3788235 L46.3247059,19.3788235 C45.7690953,19.3788235 45.4912941,19.0986067 45.4912941,18.5381647 L45.4804706,9.76037647 L44.6903529,9.76037647 C44.1347423,9.76037647 43.8569412,9.46560295 43.8569412,8.87604706 L43.8569412,6.76894118 C43.8569412,6.21577763 44.1347423,5.9392 44.6903529,5.9392 L45.4804706,5.9392 L45.4912941,3.35171765 Z" id="Path" fill="#000000"></path>
                    <path d="M53.5331765,12.4570353 C53.5331765,11.7874163 53.6179599,11.1432815 53.7875294,10.5246118 C53.9570989,9.905942 54.1952142,9.33277127 54.5018824,8.80508235 C54.8085506,8.27739344 55.1765469,7.79702177 55.6058824,7.36395294 C56.0352178,6.93088411 56.5132523,6.56150741 57.04,6.25581176 C57.5667477,5.95011612 58.1349773,5.71356946 58.7447059,5.54616471 C59.3544344,5.37875995 59.9912124,5.29505882 60.6550588,5.29505882 C61.6363971,5.29505882 62.5581918,5.47883738 63.4204706,5.8464 C64.2827494,6.21396262 65.0331733,6.71980854 65.6717647,7.36395294 C66.3103561,8.00809734 66.8154491,8.76504663 67.1870588,9.63482353 C67.5586685,10.5046004 67.7444706,11.4453283 67.7444706,12.4570353 C67.7444706,13.1266543 67.6596871,13.7689695 67.4901176,14.384 C67.3205482,14.9990305 67.0824329,15.5722013 66.7757647,16.1035294 C66.4690965,16.6348576 66.1011002,17.1170488 65.6717647,17.5501176 C65.2424292,17.9831865 64.7643948,18.3543828 64.2376471,18.6637176 C63.7108993,18.9730525 63.1462775,19.2114188 62.5437647,19.3788235 C61.9412519,19.5462283 61.3116896,19.6299294 60.6550588,19.6299294 C59.9912124,19.6299294 59.3544344,19.5462283 58.7447059,19.3788235 C58.1349773,19.2114188 57.5667477,18.9730525 57.04,18.6637176 C56.5132523,18.3543828 56.0352178,17.9831865 55.6058824,17.5501176 C55.1765469,17.1170488 54.8085506,16.6348576 54.5018824,16.1035294 C54.1952142,15.5722013 53.9570989,14.9990305 53.7875294,14.384 C53.6179599,13.7689695 53.5331765,13.1266543 53.5331765,12.4570353 Z" id="Path" fill="#C75875"></path>
                    <path d="M69.8983529,6.32131765 C69.8983529,6.1975837 69.9254115,6.07931037 69.9795294,5.96649412 C70.0336473,5.85367787 70.1003918,5.76451797 70.1797647,5.69901176 C70.3673735,5.57527781 70.5621951,5.51341176 70.7642353,5.51341176 L72.3985882,5.51341176 C72.535687,5.51341176 72.6439212,5.53888602 72.7232941,5.58983529 C72.8026671,5.64078457 72.8694115,5.7062898 72.9235294,5.78635294 C72.9776473,5.86641609 73.0245488,5.95739557 73.0642353,6.05929412 C73.1039218,6.16119267 73.1526272,6.26308969 73.2103529,6.36498824 C73.2247844,6.39410211 73.2536468,6.4650661 73.2969412,6.57788235 C73.3402355,6.6906986 73.387137,6.8144307 73.4376471,6.94908235 C73.4881571,7.08373401 73.5368625,7.21110528 73.5837647,7.3312 C73.6306669,7.45129472 73.6613333,7.52953707 73.6757647,7.56592941 C73.8922364,7.32573998 74.0996853,7.07281701 74.2981176,6.80715294 C74.49655,6.54148887 74.7076067,6.29584427 74.9312941,6.07021176 C75.1549815,5.84457926 75.4039202,5.65898112 75.6781176,5.51341176 C75.9523151,5.36784241 76.2770177,5.29505882 76.6522353,5.29505882 C77.0418843,5.29505882 77.3900377,5.32417226 77.6967059,5.3824 C78.0033741,5.44062774 78.2938026,5.52614846 78.568,5.63896471 C78.8421974,5.75178096 79.1145869,5.89552854 79.3851765,6.07021176 C79.6557661,6.24489499 79.9498023,6.44868903 80.2672941,6.6816 C80.765179,6.95090331 80.8589819,7.35121303 80.5487059,7.88254118 L79.5637647,9.57477647 C79.4194503,9.7931305 79.2426677,9.92778014 79.0334118,9.97872941 C78.8241558,10.0296787 78.596864,9.99692607 78.3515294,9.88047059 C78.0412534,9.57477494 77.7255702,9.34732624 77.4044706,9.19811765 C77.0833709,9.04890906 76.7171785,8.97430588 76.3058824,8.97430588 C76.0244692,8.97430588 75.7773344,9.01433685 75.5644706,9.0944 C75.3516068,9.17446315 75.1585891,9.2872777 74.9854118,9.43284706 C74.8122344,9.57841641 74.6498831,9.75309702 74.4983529,9.95689412 C74.3468228,10.1606912 74.1952949,10.3863203 74.0437647,10.6337882 L74.0437647,18.5381647 C74.0437647,18.8147465 73.9770203,19.0239993 73.8435294,19.1659294 C73.7100385,19.3078595 73.4881584,19.3788235 73.1778824,19.3788235 L70.7425882,19.3788235 C70.1797619,19.3788235 69.8983529,19.0986067 69.8983529,18.5381647 L69.8983529,6.32131765 Z" id="Path" fill="#000000"></path>
                    <path d="M82.3454118,6.36498824 C82.3454118,6.13207727 82.4103523,5.93192241 82.5402353,5.76451765 C82.6701183,5.59711289 82.8721555,5.51341176 83.1463529,5.51341176 L85.6249412,5.51341176 C85.7115298,5.51341176 85.8053328,5.53342725 85.9063529,5.57345882 C86.0073731,5.6134904 86.101176,5.67171726 86.1877647,5.74814118 C86.2743534,5.82456509 86.3483134,5.91372498 86.4096471,6.01562353 C86.4709807,6.11752208 86.5016471,6.23397582 86.5016471,6.36498824 L86.5016471,18.5381647 C86.5016471,18.8147465 86.4258831,19.0239993 86.2743529,19.1659294 C86.1228228,19.3078595 85.9063543,19.3788235 85.6249412,19.3788235 L83.1463529,19.3788235 C82.6123895,19.3788235 82.3454118,19.0986067 82.3454118,18.5381647 L82.3454118,6.36498824 Z" id="Path" fill="#000000"></path>
                    <path d="M82.3454118,0.840658824 C82.3454118,0.534963177 82.4103523,0.318432009 82.5402353,0.191058824 C82.6701183,0.0636856376 82.8721555,2.84217094e-14 83.1463529,2.84217094e-14 L85.6574118,2.84217094e-14 C85.909962,2.84217094e-14 86.1138031,0.0636856376 86.2689412,0.191058824 C86.4240792,0.318432009 86.5016471,0.534963177 86.5016471,0.840658824 L86.5016471,2.9696 C86.5016471,3.05694161 86.4818041,3.15156027 86.4421176,3.25345882 C86.4024312,3.35535737 86.3465102,3.45361521 86.2743529,3.54823529 C86.2021957,3.64285538 86.1138044,3.72109773 86.0091765,3.78296471 C85.9045485,3.84483168 85.7872948,3.87576471 85.6574118,3.87576471 L83.1463529,3.87576471 C82.6123895,3.87576471 82.3454118,3.57371282 82.3454118,2.9696 L82.3454118,0.840658824 Z" id="Path" fill="#000000"></path>
                    <path d="M100.615529,17.7193412 C99.9805458,18.3088971 99.2662,18.7692532 98.4724706,19.1004235 C97.6787411,19.4315938 96.8381221,19.5971765 95.9505882,19.5971765 C94.9620343,19.5971765 94.0276122,19.4152175 93.1472941,19.0512941 C92.266976,18.6873707 91.4949053,18.1833444 90.8310588,17.5392 C90.1672124,16.8950556 89.6404725,16.1362867 89.2508235,15.2628706 C88.8611745,14.3894545 88.6663529,13.4396287 88.6663529,12.4133647 C88.6663529,11.7728595 88.7439208,11.1523795 88.8990588,10.5519059 C89.0541969,9.95143229 89.2742731,9.38917909 89.5592941,8.86512941 C89.8443152,8.34107973 90.1906646,7.85888848 90.5983529,7.41854118 C91.0060413,6.97819388 91.4624288,6.60153882 91.9675294,6.28856471 C92.47263,5.97559059 93.0210166,5.73176558 93.6127059,5.55708235 C94.2043951,5.38239913 94.8285457,5.29505882 95.4851765,5.29505882 C96.0840814,5.29505882 96.6649384,5.37512077 97.2277647,5.53524706 C97.790591,5.69537335 98.3191348,5.92100247 98.8134118,6.21214118 C99.3076887,6.50327989 99.7604685,6.8526411 100.171765,7.26023529 C100.583061,7.66782949 100.936626,8.11362895 101.232471,8.59764706 C101.528315,9.08166517 101.757411,9.59842862 101.919765,10.1479529 C102.082118,10.6974773 102.163294,11.2633696 102.163294,11.8456471 C102.163294,12.2241274 102.157882,12.5334576 102.147059,12.7736471 C102.136235,13.0138365 102.080314,13.2048934 101.979294,13.3468235 C101.878274,13.4887537 101.710511,13.5870115 101.476,13.6416 C101.241489,13.6961885 100.896943,13.7234824 100.442353,13.7234824 L92.6494118,13.7234824 C92.721569,14.1893043 92.8676852,14.5786965 93.0877647,14.8916706 C93.3078442,15.2046447 93.5621946,15.4539285 93.8508235,15.6395294 C94.1394524,15.8251303 94.446116,15.9579604 94.7708235,16.0380235 C95.095531,16.1180867 95.4021946,16.1581176 95.6908235,16.1581176 C95.9505895,16.1581176 96.2175673,16.1308238 96.4917647,16.0762353 C96.7659622,16.0216468 97.031136,15.9488632 97.2872941,15.8578824 C97.5434523,15.7669015 97.7779597,15.6613653 97.9908235,15.5412706 C98.2036873,15.4211759 98.3750582,15.2956242 98.5049412,15.1646118 C98.6203927,15.0699917 98.7196074,14.9990277 98.8025882,14.9517176 C98.885569,14.9044076 98.9739603,14.8807529 99.0677647,14.8807529 C99.1615691,14.8807529 99.257176,14.9135056 99.3545882,14.9790118 C99.4520005,15.044518 99.5620386,15.1391366 99.6847059,15.2628706 L100.832,16.5729882 C100.911373,16.6676083 100.961882,16.753129 100.983529,16.8295529 C101.005177,16.9059769 101.016,16.9842192 101.016,17.0642824 C101.016,17.2098517 100.976314,17.3354034 100.896941,17.4409412 C100.817568,17.546479 100.723765,17.639278 100.615529,17.7193412 Z M95.4094118,8.62494118 C95.1279986,8.62494118 94.8556092,8.68134846 94.5922353,8.79416471 C94.3288614,8.90698096 94.0817266,9.0580069 93.8508235,9.24724706 C93.6199204,9.43648722 93.4124715,9.6511988 93.2284706,9.89138824 C93.0444697,10.1315777 92.8947457,10.3754027 92.7792941,10.6228706 L98.3101176,10.6228706 C98.1585875,10.3390103 97.9944323,10.0769894 97.8176471,9.8368 C97.6408619,9.59661056 97.4388247,9.38553816 97.2115294,9.20357647 C96.9842342,9.02161478 96.724472,8.87968678 96.4322353,8.77778824 C96.1399985,8.67588969 95.7990608,8.62494118 95.4094118,8.62494118 Z" id="Combined-Shape" fill="#000000"></path>
                    <path d="M106.481882,15.0663529 C106.676707,15.2628716 106.887764,15.4284542 107.115059,15.5631059 C107.342354,15.6977575 107.560626,15.8069329 107.769882,15.8906353 C107.979138,15.9743377 108.163136,16.0343841 108.321882,16.0707765 C108.480628,16.1071688 108.588862,16.1253647 108.646588,16.1253647 C108.783687,16.1253647 108.958666,16.1199059 109.171529,16.1089882 C109.384393,16.0980705 109.588234,16.0653179 109.783059,16.0107294 C109.977883,15.9561409 110.145646,15.866981 110.286353,15.7432471 C110.42706,15.6195131 110.497412,15.4448325 110.497412,15.2192 C110.497412,15.0154029 110.457726,14.8534594 110.378353,14.7333647 C110.29898,14.61327 110.18353,14.511373 110.032,14.4276706 C109.88047,14.3439682 109.694668,14.269365 109.474588,14.2038588 C109.254509,14.1383526 109.007374,14.0619298 108.733176,13.9745882 C107.86729,13.7416773 107.152944,13.4614605 106.590118,13.1339294 C106.027291,12.8063984 105.581727,12.4406608 105.253412,12.0367059 C104.925096,11.6327509 104.696001,11.197869 104.566118,10.7320471 C104.436235,10.2662251 104.371294,9.77493592 104.371294,9.25816471 C104.371294,8.65405188 104.490352,8.10453581 104.728471,7.6096 C104.966589,7.11466419 105.305723,6.6906998 105.745882,6.33769412 C106.186041,5.98468843 106.712781,5.71174998 107.326118,5.51887059 C107.939454,5.32599119 108.62133,5.22955294 109.371765,5.22955294 C109.826355,5.22955294 110.252076,5.26776432 110.648941,5.34418824 C111.045806,5.42061215 111.424626,5.54070506 111.785412,5.70447059 C112.146198,5.86823611 112.497959,6.07930851 112.840706,6.33769412 C113.183453,6.59607972 113.52439,6.90359037 113.863529,7.26023529 C113.986197,7.40580465 114.049333,7.54227387 114.052941,7.66964706 C114.056549,7.79702024 113.975373,7.93348947 113.809412,8.07905882 C113.527999,8.31196979 113.259217,8.54123809 113.003059,8.76687059 C112.746901,8.99250309 112.481727,9.24360646 112.207529,9.52018824 C112.120941,9.59297291 112.034353,9.63846265 111.947765,9.65665882 C111.861176,9.67485499 111.778196,9.6730354 111.698824,9.6512 C111.619451,9.6293646 111.543687,9.5929728 111.471529,9.54202353 C111.399372,9.49107426 111.334432,9.42920821 111.276706,9.35642353 C111.024156,9.07256329 110.735531,8.88150637 110.410824,8.78324706 C110.086116,8.68498774 109.78306,8.63585882 109.501647,8.63585882 C109.148077,8.63585882 108.866668,8.69772487 108.657412,8.82145882 C108.448156,8.94519278 108.350745,9.1344301 108.365176,9.38917647 C108.379608,9.57841663 108.44996,9.72580339 108.576235,9.83134118 C108.70251,9.93687896 108.857646,10.0223997 109.041647,10.0879059 C109.225648,10.1534121 109.42047,10.2061802 109.626118,10.2462118 C109.831766,10.2862433 110.021176,10.3317331 110.194353,10.3826824 C110.843768,10.5937579 111.439056,10.8230262 111.980235,11.0704941 C112.521414,11.317962 112.990429,11.6218335 113.387294,11.9821176 C113.784159,12.3424018 114.092626,12.7736445 114.312706,13.2758588 C114.532785,13.7780731 114.642824,14.3894552 114.642824,15.1100235 C114.642824,15.8305918 114.500315,16.4747266 114.215294,17.0424471 C113.930273,17.6101675 113.538826,18.0869 113.040941,18.4726588 C112.543056,18.8584176 111.95318,19.1531911 111.271294,19.3569882 C110.589408,19.5607853 109.85522,19.6626824 109.068706,19.6626824 C108.621331,19.6626824 108.166747,19.6226514 107.704941,19.5425882 C107.243135,19.4625251 106.795767,19.3333342 106.362824,19.1550118 C105.92988,18.9766893 105.51859,18.747421 105.128941,18.4672 C104.739292,18.186979 104.392943,17.8467157 104.089882,17.4464 C104.010509,17.3445015 103.950981,17.2371457 103.911294,17.1243294 C103.871608,17.0115132 103.853569,16.9005182 103.857176,16.7913412 C103.860784,16.6821642 103.882431,16.5820867 103.922118,16.4911059 C103.961804,16.400125 104.024941,16.3218827 104.111529,16.2563765 L105.507765,14.848 C105.680942,14.7024306 105.834274,14.6514821 105.967765,14.6951529 C106.101256,14.7388237 106.272626,14.8625558 106.481882,15.0663529 Z" id="Path" fill="#000000"></path>
                </g>
            </g>
        </g>
    </g>
</svg>